<svg xmlns="http://www.w3.org/2000/svg" width="24.709" height="18.753" viewBox="0 0 24.709 18.753">
  <defs>
    <style>
      .cls-1 {
        fill: #003fa6;
      }
    </style>
  </defs>
  <g id="noun_password_2050862" transform="matrix(-0.391, -0.921, 0.921, -0.391, 4.063, 30.067)">
    <path id="Path_173" data-name="Path 173" class="cls-1" d="M16.829,15.941a.974.974,0,0,0,0-.234V5.594a.974.974,0,0,0-1.949,0V5.77a.916.916,0,0,0-.146,0H11.353a.974.974,0,0,0,0,1.949h3.371a.916.916,0,0,0,.146,0v2.611a.916.916,0,0,0-.146,0H12.483a.974.974,0,1,0,0,1.949h2.251a.916.916,0,0,0,.146,0v3.43a.974.974,0,0,0,0,.234,5.476,5.476,0,1,0,1.851,0Zm-.974,8.905a3.527,3.527,0,1,1,3.527-3.527,3.527,3.527,0,0,1-3.527,3.527Z" transform="translate(0 0)"/>
  </g>
</svg>
