<svg xmlns="http://www.w3.org/2000/svg" width="23.893" height="22.09" viewBox="0 0 23.893 22.09">
  <defs>
    <style>
      .cls-1, .cls-2 {
        fill: #003fa6;
      }

      .cls-1 {
        stroke: #003fa6;
        stroke-width: 0.5px;
      }
    </style>
  </defs>
  <g id="Group_770" data-name="Group 770" transform="translate(-1259.614 -252.5)">
    <g id="noun_User_2346688" transform="translate(1257.024 255.83)">
      <g id="Group_256" data-name="Group 256" transform="translate(2.84 0.17)">
        <path id="Path_165" data-name="Path 165" class="cls-1" d="M13.264,11.031A4.43,4.43,0,1,0,8.83,6.6,4.437,4.437,0,0,0,13.264,11.031Zm0-8.243A3.812,3.812,0,1,1,9.448,6.6,3.821,3.821,0,0,1,13.264,2.788Z" transform="translate(-5.126 -2.17)"/>
        <path id="Path_166" data-name="Path 166" class="cls-1" d="M11.392,16.83h-.822A7.74,7.74,0,0,0,2.84,24.559a.306.306,0,0,0,.309.309H18.812a.306.306,0,0,0,.309-.309A7.74,7.74,0,0,0,11.392,16.83ZM3.458,24.25a7.121,7.121,0,0,1,7.1-6.8h.822a7.121,7.121,0,0,1,7.1,6.8Z" transform="translate(-2.84 -6.528)"/>
      </g>
    </g>
    <g id="noun_administrator_1923783" transform="translate(1259.492 248.5)">
      <path id="Path_168" data-name="Path 168" class="cls-2" d="M22.883,9.006c0-.041-.011-.079-.012-.12l1.145-.2-.193-1.1-1.152.2a3.866,3.866,0,0,0-.788-1.369l.75-.894-.852-.715-.748.891a3.853,3.853,0,0,0-1.487-.537V4H18.433V5.168a3.853,3.853,0,0,0-1.487.537L16.2,4.814l-.852.715.75.894a3.867,3.867,0,0,0-.788,1.369l-1.152-.2-.193,1.1,1.145.2c0,.041-.012.079-.012.12a3.871,3.871,0,0,0,.283,1.442l-1,.579.556.963,1.013-.585a3.885,3.885,0,0,0,1.21,1.014l-.4,1.1,1.045.38.394-1.083a3.88,3.88,0,0,0,1.59,0l.394,1.083,1.045-.38-.4-1.1a3.885,3.885,0,0,0,1.21-1.014l1.013.585.556-.963-1-.579A3.871,3.871,0,0,0,22.883,9.006Zm-3.893,2.781A2.781,2.781,0,1,1,21.77,9.006a2.781,2.781,0,0,1-2.781,2.781Z" transform="translate(0 0)"/>
    </g>
  </g>
</svg>
