<svg xmlns="http://www.w3.org/2000/svg" width="16.271" height="12.516" viewBox="0 0 16.271 12.516">
  <defs>
    <style>
      .cls-1 {
        fill: #003fa6;
      }
    </style>
  </defs>
  <g id="noun_Email_3018354" transform="translate(-3 -6)">
    <g id="Group_257" data-name="Group 257" transform="translate(3 6)">
      <path id="Path_167" data-name="Path 167" class="cls-1" d="M18.541,6.4l0,0A1.859,1.859,0,0,0,17.394,6H4.877A1.879,1.879,0,0,0,3,7.877v8.761a1.879,1.879,0,0,0,1.877,1.877H17.394a1.879,1.879,0,0,0,1.877-1.877V7.877a1.868,1.868,0,0,0-.73-1.475Zm-1.773.85-5.632,4.224L5.5,7.252Zm1.252,9.387a.626.626,0,0,1-.626.626H4.877a.627.627,0,0,1-.626-.626V7.877l6.508,4.881a.626.626,0,0,0,.751,0l6.508-4.881Z" transform="translate(-3 -6)"/>
    </g>
  </g>
</svg>
