<svg xmlns="http://www.w3.org/2000/svg" width="17.16" height="16.9" viewBox="0 0 17.16 16.9">
  <defs>
    <style>
      .cls-1 {
        fill: #003fa6;
      }
    </style>
  </defs>
  <g id="noun_administrator_1923783" transform="translate(-13.963 -4)">
    <path id="Path_168" data-name="Path 168" class="cls-1" d="M29.19,12.545c0-.07-.018-.135-.021-.2L31.123,12l-.33-1.87-1.967.347a6.6,6.6,0,0,0-1.345-2.337l1.281-1.526L27.309,5.389,26.032,6.911a6.577,6.577,0,0,0-2.539-.916V4h-1.9V5.995a6.577,6.577,0,0,0-2.539.916L17.778,5.389,16.323,6.61,17.6,8.136a6.6,6.6,0,0,0-1.345,2.337l-1.967-.347L13.963,12l1.955.345c0,.069-.021.134-.021.2a6.608,6.608,0,0,0,.483,2.462L14.668,16l.949,1.644,1.729-1a6.632,6.632,0,0,0,2.065,1.731l-.683,1.877,1.784.649.673-1.849a6.624,6.624,0,0,0,2.715,0l.673,1.849,1.784-.649-.683-1.877a6.632,6.632,0,0,0,2.065-1.732l1.729,1L30.418,16l-1.712-.989A6.608,6.608,0,0,0,29.19,12.545Zm-6.646,4.747a4.747,4.747,0,1,1,4.747-4.747,4.747,4.747,0,0,1-4.747,4.747Z" transform="translate(0 0)"/>
  </g>
</svg>
